<?xml version="1.0" encoding="UTF-8"?>
<svg width="512" height="512" viewBox="0 0 512 512" xmlns="http://www.w3.org/2000/svg">
  <path d="M256 64C150 64 64 150 64 256s86 192 192 192 192-86 192-192S362 64 256 64z" fill="none" stroke="#000" stroke-width="32"/>
  <path d="M374.8 169.2c-17.1-11.4-38.2-15.5-58.4-11.1-20.2 4.4-37.7 16.7-48.1 33.9-5.8 9.6-8.8 20.4-8.8 31.5v77c0 11.1 3 21.9 8.8 31.5 10.4 17.2 27.9 29.5 48.1 33.9 20.2 4.4 41.3.3 58.4-11.1 17.1-11.4 27.7-30.1 27.7-50.4v-84.8c0-20.3-10.6-39-27.7-50.4z" fill="#A5D6E7"/>
  <path d="M256 128c-70.7 0-128 57.3-128 128s57.3 128 128 128 128-57.3 128-128-57.3-128-128-128zm0 224c-52.9 0-96-43.1-96-96s43.1-96 96-96 96 43.1 96 96-43.1 96-96 96z" fill="#D3D3D3"/>
  <circle cx="208" cy="208" r="16" fill="#000"/>
</svg> 